# xmcd
#
# Track frame offsets: 
#        150
#        19056
#        36893
#        51609
#        67084
#        86625
#        102715
#        116775
#        133218
#        148720
#        173677
#        197849
#
# Disc length: 2821 seconds
#
# Revision: 0
# Processed by: cddbd v1.5.2PL0 Copyright (c) Steve Scherf et al.
# Submitted via: ExactAudioCopy v1.1
#
DISCID=bd0b030c
DTITLE=Junior Wells - It's My Life, Baby!
DYEAR=1966
DGENRE=Blues
TTITLE0=It's My Life, Baby (live) (stereo)
TTITLE1=It's So Sad To Be Lonely (live) (stereo)
TTITLE2=Country Girl (live) (stereo)
TTITLE3=You Lied To Me (live) (stereo)
TTITLE4=Stormy Monday Blues (live) (stereo)
TTITLE5=Shake It Baby (live) (stereo)
TTITLE6=Checking On My Baby (live) (stereo)
TTITLE7=Early In The Morning (live) (stereo)
TTITLE8=(I Got A) Stomach Ache (live) (stereo)
TTITLE9=Look How Baby (live) (stereo)
TTITLE10=Slow, Slow (live) (stereo)
TTITLE11=Everything's Going To Be Altight (live) (stereo)
EXTD=
EXTT0=
EXTT1=
EXTT2=
EXTT3=
EXTT4=
EXTT5=
EXTT6=
EXTT7=
EXTT8=
EXTT9=
EXTT10=
EXTT11=
PLAYORDER=
